<?xml version="1.0" standalone="no"?>
<!DOCTYPE svg PUBLIC "-//W3C//DTD SVG 20010904//EN"
 "http://www.w3.org/TR/2001/REC-SVG-20010904/DTD/svg10.dtd">
<svg version="1.0" xmlns="http://www.w3.org/2000/svg"
 width="74.000000pt" height="74.000000pt" viewBox="0 0 74.000000 74.000000"
 preserveAspectRatio="xMidYMid meet">
<metadata>
Created by potrace 1.14, written by Peter Selinger 2001-2017
</metadata>
<g transform="translate(0.000000,74.000000) scale(0.100000,-0.100000)"
fill="#000000" stroke="none">
<path d="M319 599 l-34 -40 -44 15 c-24 9 -47 16 -52 16 -4 0 -9 -26 -11 -57
l-3 -57 -47 -15 c-27 -8 -48 -19 -48 -24 0 -6 11 -25 25 -43 31 -41 31 -49 0
-90 -14 -18 -25 -37 -25 -43 0 -5 23 -17 50 -26 l50 -17 0 -54 c0 -30 3 -54 8
-54 4 0 29 7 55 15 l48 14 27 -39 c15 -22 32 -39 38 -40 9 0 44 39 69 78 1 1
22 -5 45 -13 24 -9 50 -13 57 -11 7 3 13 27 15 57 l3 52 45 15 c25 8 47 16 49
18 2 2 -10 24 -28 49 l-32 45 30 42 c17 23 28 45 23 50 -4 4 -25 14 -47 21
-39 13 -40 16 -43 63 -4 58 -11 68 -43 56 -68 -25 -75 -24 -103 18 -14 22 -30
40 -35 40 -5 0 -24 -18 -42 -41z m134 -93 c107 -58 117 -235 19 -305 -157
-111 -363 52 -283 224 24 52 59 83 112 100 52 16 100 10 152 -19z"/>
</g>
</svg>
